<svg xmlns="http://www.w3.org/2000/svg" xmlns:xlink="http://www.w3.org/1999/xlink" version="1.1" x="0px" y="0px" viewBox="0 0 150 187.5"><g><path d="M121.462,37.83 C126.594,37.83 130.754,41.991 130.754,47.123 L130.754,51.769 L135.4,51.769 C137.967,51.769 140.047,53.849 140.047,56.415 L140.047,61.061 L144.693,61.061 C147.259,61.061 149.339,63.142 149.339,65.708 L149.339,84.292 C149.339,86.858 147.259,88.939 144.693,88.939 L140.047,88.939 L140.047,93.585 C140.047,96.151 137.967,98.231 135.401,98.231 L130.754,98.231 L130.754,102.877 C130.754,108.009 126.594,112.17 121.462,112.17 L9.953,112.17 C4.821,112.17 0.661,108.009 0.661,102.877 L0.66,47.123 C0.661,41.991 4.821,37.83 9.953,37.83 L121.462,37.83 z M88.495,44.563 L75.587,50.693 C75.587,50.693 66.487,81.049 66.487,81.049 C66.487,81.049 78.758,73.886 79.134,75.201 C77.884,81.193 69.974,104.386 69.974,104.386 C69.974,104.386 97.776,61.558 97.776,61.558 C97.776,61.558 81.649,68.307 81.649,68.307 C81.649,68.307 86.417,50.217 88.495,44.563 z M18.185,49.458 C13.868,49.458 10.368,49.442 10.368,53.759 L10.368,96.033 C10.368,100.35 13.868,100.542 18.185,100.542 C22.502,100.542 26.001,100.35 26.001,96.033 L26.001,53.759 C26.001,49.442 22.502,49.458 18.185,49.458 z" fill="#000000"/></g><text x="0" y="165" fill="#000000" font-size="5px" font-weight="bold" font-family="'Helvetica Neue', Helvetica, Arial-Unicode, Arial, Sans-serif">Created by Anna Sophie</text><text x="0" y="170" fill="#0C2964" font-size="5px" font-weight="bold" font-family="'Helvetica Neue', Helvetica, Arial-Unicode, Arial, Sans-serif">from the Noun Project</text></svg>