<svg width="14" height="13" viewBox="0 0 14 13" fill="none" xmlns="http://www.w3.org/2000/svg">
<g clip-path="url(#clip0_1_4952)">
<path d="M12.1269 3.61564C11.8611 3.03423 11.4779 2.50781 10.9988 2.06608C10.5182 1.62037 9.95165 1.26661 9.33003 1.02412C8.6834 0.769654 7.99724 0.641083 7.2899 0.641083C6.58257 0.641083 5.89641 0.769654 5.24978 1.02278C4.62433 1.26787 4.06383 1.61876 3.58097 2.06474C3.10225 2.50672 2.71906 3.03307 2.4529 3.6143C2.17759 4.21698 2.03782 4.85715 2.03782 5.51608C2.03782 6.46162 2.27642 7.40314 2.74516 8.31117C3.12212 9.04108 3.64874 9.75224 4.31231 10.4286C5.44603 11.583 6.63481 12.2889 6.97224 12.4777C7.06802 12.5313 7.17726 12.5596 7.28849 12.5594C7.39862 12.5594 7.50733 12.5326 7.60475 12.4777C7.94218 12.2889 9.13096 11.583 10.2647 10.4286C10.9282 9.75358 11.4549 9.04108 11.8318 8.31117C12.3034 7.40448 12.542 6.4643 12.542 5.51742C12.542 4.85849 12.4022 4.21832 12.1269 3.61564ZM7.2899 11.5322C6.35949 10.971 3.05435 8.74912 3.05435 5.51742C3.05435 4.47412 3.49344 3.49376 4.29113 2.75448C5.09165 2.01385 6.15619 1.60537 7.2899 1.60537C8.42362 1.60537 9.48815 2.01385 10.2887 2.75581C11.0864 3.49376 11.5255 4.47412 11.5255 5.51742C11.5255 8.74912 8.22031 10.971 7.2899 11.5322ZM7.2899 3.26608C5.91759 3.26608 4.80505 4.32144 4.80505 5.62323C4.80505 6.92501 5.91759 7.98037 7.2899 7.98037C8.66222 7.98037 9.77476 6.92501 9.77476 5.62323C9.77476 4.32144 8.66222 3.26608 7.2899 3.26608ZM8.40809 6.68394C8.26143 6.82346 8.08713 6.9341 7.89523 7.00949C7.70333 7.08488 7.49761 7.12353 7.2899 7.12323C6.86776 7.12323 6.47103 6.96653 6.17172 6.68394C6.02464 6.54482 5.908 6.37948 5.82853 6.19744C5.74906 6.01541 5.70831 5.82026 5.70863 5.62323C5.70863 5.22278 5.87382 4.84644 6.17172 4.56251C6.47103 4.27858 6.86776 4.12323 7.2899 4.12323C7.71205 4.12323 8.10878 4.27858 8.40809 4.56251C8.7074 4.84644 8.87118 5.22278 8.87118 5.62323C8.87118 6.02367 8.7074 6.40001 8.40809 6.68394Z" fill="#3976F2"/>
</g>
<defs>
<clipPath id="clip0_1_4952">
<rect width="12.6502" height="12" fill="white" transform="translate(0.9646 0.600098)"/>
</clipPath>
</defs>
</svg>
