<svg width="15" height="15" viewBox="0 0 15 15" fill="none" xmlns="http://www.w3.org/2000/svg">
<g clip-path="url(#clip0_1_4940)">
<path d="M14.1565 13.2358L9.80885 8.88819C10.4835 8.01598 10.8485 6.94958 10.8485 5.82792C10.8485 4.48529 10.3245 3.22636 9.37693 2.27714C8.42938 1.32792 7.16711 0.805603 5.82615 0.805603C4.48519 0.805603 3.22291 1.3296 2.27537 2.27714C1.32615 3.22469 0.803825 4.48529 0.803825 5.82792C0.803825 7.16888 1.32782 8.43116 2.27537 9.37871C3.22291 10.3279 4.48351 10.8502 5.82615 10.8502C6.9478 10.8502 8.01253 10.4853 8.88474 9.8123L13.2324 14.1583C13.2451 14.171 13.2603 14.1812 13.2769 14.1881C13.2936 14.195 13.3115 14.1985 13.3295 14.1985C13.3475 14.1985 13.3654 14.195 13.382 14.1881C13.3987 14.1812 13.4138 14.171 13.4266 14.1583L14.1565 13.43C14.1693 13.4173 14.1794 13.4022 14.1863 13.3855C14.1932 13.3688 14.1967 13.351 14.1967 13.3329C14.1967 13.3149 14.1932 13.2971 14.1863 13.2804C14.1794 13.2637 14.1693 13.2486 14.1565 13.2358ZM8.47793 8.47971C7.76811 9.18786 6.82726 9.57792 5.82615 9.57792C4.82503 9.57792 3.88418 9.18786 3.17436 8.47971C2.46621 7.76989 2.07615 6.82904 2.07615 5.82792C2.07615 4.82681 2.46621 3.88429 3.17436 3.17614C3.88418 2.46799 4.82503 2.07792 5.82615 2.07792C6.82726 2.07792 7.76979 2.46632 8.47793 3.17614C9.18608 3.88596 9.57615 4.82681 9.57615 5.82792C9.57615 6.82904 9.18608 7.77156 8.47793 8.47971Z" fill="#0C2964"/>
</g>
<defs>
<clipPath id="clip0_1_4940">
<rect width="15" height="15" fill="white"/>
</clipPath>
</defs>
</svg>
