<svg width="94" height="94" viewBox="0 0 94 94" fill="none" xmlns="http://www.w3.org/2000/svg">
<circle cx="47.2802" cy="46.9125" r="46.631" fill="#23A26D" fill-opacity="0.12"/>
<path d="M46.4474 24.7073C34.2124 24.7073 24.2422 34.6774 24.2422 46.9125C24.2422 59.1476 34.2124 69.1177 46.4474 69.1177C58.6825 69.1177 68.6527 59.1476 68.6527 46.9125C68.6527 34.6774 58.6825 24.7073 46.4474 24.7073ZM57.0616 41.8053L44.4712 54.3957C44.1603 54.7065 43.7384 54.8842 43.2943 54.8842C42.8502 54.8842 42.4283 54.7065 42.1174 54.3957L35.8333 48.1116C35.1894 47.4676 35.1894 46.4018 35.8333 45.7578C36.4773 45.1139 37.5432 45.1139 38.1871 45.7578L43.2943 50.865L54.7078 39.4515C55.3517 38.8076 56.4176 38.8076 57.0616 39.4515C57.7055 40.0955 57.7055 41.1391 57.0616 41.8053Z" fill="#23A26D"/>
</svg>
