<svg width="24" height="24" viewBox="0 0 24 24" fill="none" xmlns="http://www.w3.org/2000/svg">
<path d="M12.0001 2.25098C6.61506 2.25098 2.25006 6.61598 2.25006 12.001C2.25006 17.386 6.61506 21.751 12.0001 21.751C17.3851 21.751 21.7501 17.386 21.7501 12.001C21.7501 6.61598 17.3851 2.25098 12.0001 2.25098ZM8.14084 7.61066L13.0627 10.9388C13.3876 11.1728 13.6073 11.5253 13.6743 11.92C13.7413 12.3148 13.6503 12.72 13.4208 13.0481C13.1913 13.3762 12.8419 13.6008 12.4481 13.6733C12.0543 13.7457 11.6479 13.6603 11.3166 13.4354C11.1711 13.3327 11.0443 13.2059 10.9416 13.0604L7.6135 8.13848C7.56227 8.06509 7.5385 7.97601 7.54637 7.88685C7.55423 7.7977 7.59323 7.71415 7.65651 7.65087C7.7198 7.58758 7.80334 7.54858 7.8925 7.54072C7.98166 7.53286 8.07073 7.55662 8.14412 7.60785L8.14084 7.61066ZM12.0001 20.251C7.45319 20.251 3.75006 16.5502 3.75006 12.001C3.7462 10.8914 3.96806 9.79261 4.40217 8.77146C4.83627 7.75031 5.47354 6.82812 6.27522 6.06098C6.33756 5.99882 6.41166 5.9497 6.49319 5.91648C6.57471 5.88325 6.66203 5.86659 6.75007 5.86746C6.8381 5.86833 6.92508 5.88672 7.00593 5.92155C7.08678 5.95638 7.15989 6.00696 7.22099 6.07033C7.2821 6.13371 7.32998 6.20861 7.36183 6.29068C7.39369 6.37275 7.40889 6.46034 7.40655 6.54835C7.40421 6.63635 7.38438 6.72301 7.3482 6.80327C7.31202 6.88353 7.26023 6.95578 7.19584 7.01582C6.52312 7.65971 5.98835 8.43367 5.62404 9.29066C5.25973 10.1477 5.07348 11.0698 5.07662 12.001C5.07662 15.8185 8.18256 18.9244 12.0001 18.9244C15.8176 18.9244 18.9235 15.8185 18.9235 12.001C18.9235 8.40707 16.171 5.4441 12.6633 5.11035V7.68848C12.6633 7.86439 12.5935 8.0331 12.4691 8.15749C12.3447 8.28188 12.176 8.35176 12.0001 8.35176C11.8241 8.35176 11.6554 8.28188 11.5311 8.15749C11.4067 8.0331 11.3368 7.86439 11.3368 7.68848V4.41426C11.3368 4.23834 11.4067 4.06964 11.5311 3.94525C11.6554 3.82086 11.8241 3.75098 12.0001 3.75098C16.5493 3.75098 20.2501 7.4541 20.2501 12.001C20.2501 16.5479 16.5493 20.251 12.0001 20.251Z" fill="#F39404"/>
</svg>
