<svg width="9" height="9" viewBox="0 0 9 9" fill="none" xmlns="http://www.w3.org/2000/svg">
<path d="M2.4375 3.04125C2.10375 3.04125 1.83375 2.77125 1.83375 2.4375C1.83375 2.27738 1.89736 2.12381 2.01058 2.01058C2.12381 1.89736 2.27738 1.83375 2.4375 1.83375C2.77125 1.83375 3.04125 2.10375 3.04125 2.4375C3.04125 2.59762 2.97764 2.75119 2.86442 2.86442C2.75119 2.97764 2.59762 3.04125 2.4375 3.04125ZM2.4375 0.75C1.5 0.75 0.75 1.5 0.75 2.4375C0.75 3.70125 2.4375 5.5725 2.4375 5.5725C2.4375 5.5725 4.125 3.70125 4.125 2.4375C4.125 1.5 3.375 0.75 2.4375 0.75ZM6.5625 3.04125C6.40238 3.04125 6.24881 2.97764 6.13558 2.86442C6.02236 2.75119 5.95875 2.59762 5.95875 2.4375C5.95875 2.35821 5.97437 2.27971 6.00471 2.20645C6.03505 2.1332 6.07952 2.06665 6.13558 2.01058C6.19165 1.95452 6.2582 1.91005 6.33145 1.87971C6.40471 1.84937 6.48321 1.83375 6.5625 1.83375C6.64179 1.83375 6.72029 1.84937 6.79355 1.87971C6.8668 1.91005 6.93335 1.95452 6.98942 2.01058C7.04548 2.06665 7.08995 2.1332 7.12029 2.20645C7.15063 2.27971 7.16625 2.35821 7.16625 2.4375C7.16625 2.59762 7.10264 2.75119 6.98942 2.86442C6.87619 2.97764 6.72262 3.04125 6.5625 3.04125ZM6.5625 0.75C5.625 0.75 4.875 1.5 4.875 2.4375C4.875 3.70125 6.5625 5.5725 6.5625 5.5725C6.5625 5.5725 8.25 3.70125 8.25 2.4375C8.25 1.5 7.5 0.75 6.5625 0.75ZM6.5625 6C6.08625 6 5.6625 6.3 5.505 6.75H3.495C3.39563 6.46934 3.18906 6.23951 2.92055 6.11088C2.65204 5.98225 2.34348 5.9653 2.0625 6.06375C1.92284 6.11269 1.7942 6.18867 1.68393 6.28735C1.57365 6.38603 1.48391 6.50548 1.41983 6.63887C1.35575 6.77226 1.31858 6.91697 1.31046 7.06472C1.30234 7.21248 1.32342 7.36039 1.3725 7.5C1.47321 7.78139 1.68118 8.01151 1.95098 8.14009C2.22078 8.26866 2.5305 8.28526 2.8125 8.18625C3.13125 8.07375 3.375 7.81875 3.495 7.5H5.50875C5.715 8.085 6.36 8.3925 6.9375 8.18625C7.07758 8.13782 7.20671 8.06218 7.31747 7.96369C7.42823 7.8652 7.51843 7.74579 7.5829 7.61232C7.64737 7.47886 7.68483 7.33397 7.69312 7.18599C7.70142 7.038 7.68039 6.88983 7.63125 6.75C7.47 6.3 7.0425 6 6.5625 6ZM6.5625 7.6875C6.41332 7.6875 6.27024 7.62824 6.16475 7.52275C6.05926 7.41726 6 7.27418 6 7.125C6 6.97582 6.05926 6.83274 6.16475 6.72725C6.27024 6.62176 6.41332 6.5625 6.5625 6.5625C6.71168 6.5625 6.85476 6.62176 6.96025 6.72725C7.06574 6.83274 7.125 6.97582 7.125 7.125C7.125 7.27418 7.06574 7.41726 6.96025 7.52275C6.85476 7.62824 6.71168 7.6875 6.5625 7.6875Z" fill="#545454"/>
</svg>
